<?xml version="1.0"?>
<svg xmlns="http://www.w3.org/2000/svg" xmlns:xlink="http://www.w3.org/1999/xlink" id="eF7Dy0N5Z4W1" viewBox="0 0 160 48" shape-rendering="geometricPrecision" text-rendering="geometricPrecision" width="160" height="48">
<style><![CDATA[
#eF7Dy0N5Z4W3_to {animation: eF7Dy0N5Z4W3_to__to 1000ms linear 1 normal forwards}@keyframes eF7Dy0N5Z4W3_to__to { 0% {transform: translate(32.3757px,13.495px);animation-timing-function: cubic-bezier(0.175,0.885,0.32,1.275)} 100% {transform: translate(72.4757px,13.495px)}} #eF7Dy0N5Z4W3 {animation: eF7Dy0N5Z4W3_c_o 1000ms linear 1 normal forwards}@keyframes eF7Dy0N5Z4W3_c_o { 0% {opacity: 0;animation-timing-function: cubic-bezier(0.175,0.885,0.32,1.275)} 100% {opacity: 1}} #eF7Dy0N5Z4W4_to {animation: eF7Dy0N5Z4W4_to__to 1000ms linear 1 normal forwards}@keyframes eF7Dy0N5Z4W4_to__to { 0% {transform: translate(59.4px,29px);animation-timing-function: cubic-bezier(0.175,0.885,0.32,1.275)} 100% {transform: translate(99.5px,29px)}} #eF7Dy0N5Z4W4 {animation: eF7Dy0N5Z4W4_c_o 1000ms linear 1 normal forwards}@keyframes eF7Dy0N5Z4W4_c_o { 0% {opacity: 0;animation-timing-function: cubic-bezier(0.175,0.885,0.32,1.275)} 100% {opacity: 1}} #eF7Dy0N5Z4W5_to {animation: eF7Dy0N5Z4W5_to__to 1000ms linear 1 normal forwards}@keyframes eF7Dy0N5Z4W5_to__to { 0% {transform: translate(80px,24px);animation-timing-function: cubic-bezier(0.175,0.885,0.32,1.275)} 100% {transform: translate(23.5px,24px)}}
]]></style>
<rect width="160" height="48" rx="4" ry="4" transform="translate(.000001 0)" fill="#009fff"/><g id="eF7Dy0N5Z4W3_to" transform="translate(32.3757,13.495)"><path id="eF7Dy0N5Z4W3" d="M54.55,12.12c-.16-.2933-.38-.5167-.66-.67s-.6067-.23-.98-.23c-.4133,0-.78.0933-1.1.28s-.57.4533-.75.8-.27.7467-.27,1.2c0,.4667.09.8733.27,1.22.1867.3467.4433.6133.77.8s.7067.28,1.14.28c.5333,0,.97-.14,1.31-.42.34-.2867.5633-.6833.67-1.19h-2.4v-1.07h3.78v1.22c-.0933.4867-.2933.9367-.6,1.35s-.7033.7467-1.19,1c-.48.2467-1.02.37-1.62.37-.6733,0-1.2833-.15-1.83-.45-.54-.3067-.9667-.73-1.28-1.27-.3067-.54-.46-1.1533-.46-1.84s.1533-1.3.46-1.84c.3133-.5467.74-.97,1.28-1.27.5467-.3067,1.1533-.46,1.82-.46.7867,0,1.47.1933,2.05.58.58.38.98.9167,1.2,1.61h-1.61Zm4.2158-.97v1.75h2.35v1.11h-2.35v1.85h2.65v1.14h-4.05v-6.99h4.05v1.14h-2.65Zm8.6722-1.13v1.13h-1.86v5.85h-1.4v-5.85h-1.86v-1.13h5.12Zm4.8043,0v6.98h-1.4v-6.98h1.4Zm6.1332,0v1.13h-1.86v5.85h-1.4v-5.85h-1.86v-1.13h5.12Zm6.6443,7.05c-.6533,0-1.2533-.1533-1.8-.46s-.98-.73-1.3-1.27c-.32-.5467-.48-1.1633-.48-1.85c0-.68.16-1.29.48-1.83.32-.5467.7534-.9733,1.3-1.28s1.1467-.46,1.8-.46c.66,0,1.26.1533,1.8.46.5467.3067.9767.7333,1.29,1.28.32.54.48,1.15.48,1.83c0,.6867-.16,1.3033-.48,1.85-.3133.54-.7433.9633-1.29,1.27-.5466.3067-1.1466.46-1.8.46Zm0-1.25c.42,0,.79-.0933,1.11-.28.32-.1933.57-.4667.75-.82s.27-.7633.27-1.23-.09-.8733-.27-1.22c-.18-.3533-.43-.6233-.75-.81s-.69-.28-1.11-.28-.7933.0933-1.12.28c-.32.1867-.57.4567-.75.81-.18.3467-.27.7533-.27,1.22s.09.8767.27,1.23.43.6267.75.82c.3267.1867.7.28,1.12.28ZM95.6014,17h-1.4l-3.17-4.79v4.79h-1.4v-6.99h1.4l3.17,4.8v-4.8h1.4v6.99Z" transform="translate(-72.4757,-13.495)" opacity="0" fill="#fff"/></g><g id="eF7Dy0N5Z4W4_to" transform="translate(59.4,29)"><path id="eF7Dy0N5Z4W4" d="M61.1767,31.7091l2.9072,5.14h-5.3942l-2.4548-4.3926h-2.3255v4.3926h-4.9094v-15.5707h8.9791c3.7144,0,6.0725,1.9914,6.0725,5.5727c0,2.3045-1.0981,3.9553-2.8749,4.858Zm-7.2673-6.3839v3.0829h3.4883c1.0336,0,1.6795-.5916,1.6795-1.557s-.6459-1.5259-1.6795-1.5259h-3.4883ZM79.6843,38l-14.696-3.8304L68.9288,20l7.348,1.9152l7.3479,1.9152L79.6843,38ZM76.9066,27.5673l-4.102-1.0899-1.0981,3.9549l4.1019,1.0903l1.0982-3.9553Zm23.5464,4.8892c0,2.9896-1.9703,4.3926-5.0388,4.3926h-9.625v-15.5707h9.3021c3.0682,0,5.0387,1.526,5.0387,4.2041c0,1.6816-.6461,2.803-1.8736,3.5816c1.3891.5897,2.1966,1.7734,2.1966,3.3924Zm-9.8836-7.4411v2.3044h3.1957c.8721,0,1.3891-.3736,1.3891-1.1833c0-.7474-.517-1.1211-1.3891-1.1211h-3.1957Zm0,8.0967h3.5852c.8398,0,1.3259-.4359,1.3259-1.1837c0-.8093-.4845-1.183-1.3259-1.183h-3.5852v2.3667ZM102.875,21.2784h4.909v10.9605h7.041v4.6102h-11.95v-15.5707Zm30.006,7.7857c0,1.6014-.492,3.1668-1.415,4.4983s-2.234,2.3693-3.769,2.9821c-1.534.6128-3.223.7732-4.852.4608s-3.125-1.0836-4.3-2.216c-1.174-1.1323-1.974-2.575-2.298-4.1456s-.157-3.1986.478-4.6781c.636-1.4795,1.712-2.744,3.093-3.6337s3.004-1.3646,4.666-1.3646c1.103-.0021,2.196.2059,3.216.6119c1.019.4061,1.946,1.0022,2.726,1.7543s1.399,1.6453,1.82,2.6285.637,2.0367.635,3.1004v.0017Zm-4.909,0c0-1.9311-1.583-3.457-3.488-3.457-1.906,0-3.489,1.5259-3.489,3.457s1.583,3.4567,3.489,3.4567c1.905,0,3.488-1.5279,3.488-3.4584v.0017Zm16.731-.2495L150,36.8491h-5.848l-2.905-4.5794-3.004,4.5794h-5.943l5.523-7.8479-5.071-7.7228h5.846l2.681,4.2041l2.584-4.2041h5.814l-4.974,7.5362Z" transform="translate(-99.5,-29)" opacity="0" fill="#fff"/></g><g id="eF7Dy0N5Z4W5_to" transform="translate(80,24)"><path d="M15.7056,10L12.7054,21.6121l7.6798,2.1056.9381-3.6292l13.6279,3.7582L37,15.917L15.7056,10Zm18.563,16.4888l-7.6763-2.1046-.9136,3.5293L12.0486,24.154L10,32.083L31.2944,38l2.9742-11.5112Z" transform="translate(-23.5,-24)" clip-rule="evenodd" fill="#fff" fill-rule="evenodd"/></g></svg>
